<?xml version="1.0"?>
<svg xmlns="http://www.w3.org/2000/svg" id="Layer_1" data-name="Layer 1" viewBox="0 0 512 512" width="512" height="512"><title>Heart</title><path d="M474.86,162.72c18.37,94.67-40.1,221.09-213.3,291.26a14.53,14.53,0,0,1-11.14,0C77.78,385.48,18.75,258.51,37.12,162.72,49.38,98.12,94.49,56.91,152.96,56.91c32.86,0,67.94,13.36,103.03,39.54,34.53-25.07,70.17-38.43,102.47-38.43C416.94,58.02,462.05,99.23,474.86,162.72Z" style="fill:#d7443e"/><path d="M96.37,200.691a8.1,8.1,0,0,1-1.37-.117,8,8,0,0,1-6.523-9.244c9.278-53.781,38.134-83.4,81.253-83.4a8,8,0,0,1,0,16c-44.127,0-59.968,38.132-65.486,70.12A8,8,0,0,1,96.37,200.691Z" style="fill:#d4e1f4"/></svg>
